<svg xmlns:dc="http://purl.org/dc/elements/1.1/" xmlns:cc="http://creativecommons.org/ns#" xmlns:rdf="http://www.w3.org/1999/02/22-rdf-syntax-ns#" xmlns:svg="http://www.w3.org/2000/svg" xmlns="http://www.w3.org/2000/svg" xmlns:sodipodi="http://sodipodi.sourceforge.net/DTD/sodipodi-0.dtd" xmlns:inkscape="http://www.inkscape.org/namespaces/inkscape" width="24" height="24" viewBox="0 0 6.3499999 6.3500002" version="1.1" id="svg8" inkscape:version="0.92.4 (5da689c313, 2019-01-14)" sodipodi:docname="5. Briefcase.svg">
<defs id="defs2">
<pattern y="0" x="0" height="6" width="6" patternUnits="userSpaceOnUse" id="EMFhbasepattern"></pattern>
<pattern y="0" x="0" height="6" width="6" patternUnits="userSpaceOnUse" id="EMFhbasepattern-3"></pattern>
<pattern y="0" x="0" height="6" width="6" patternUnits="userSpaceOnUse" id="EMFhbasepattern-2"></pattern>
<pattern y="0" x="0" height="6" width="6" patternUnits="userSpaceOnUse" id="EMFhbasepattern-1"></pattern>
</defs>
<sodipodi:namedview id="base" pagecolor="#ffffff" bordercolor="#666666" borderopacity="1.0" inkscape:pageopacity="0.0" inkscape:pageshadow="2" inkscape:zoom="7.9999995" inkscape:cx="5.8652195" inkscape:cy="16.605566" inkscape:document-units="px" inkscape:current-layer="layer1" showgrid="false" units="px" inkscape:window-width="1280" inkscape:window-height="658" inkscape:window-x="-8" inkscape:window-y="-8" inkscape:window-maximized="1" showguides="true" guidecolor="#af0000" guideopacity="0.49803922" guidehicolor="#ff4b4b" guidehiopacity="0.49803922" inkscape:snap-global="false">
<inkscape:grid type="xygrid" id="grid815" empspacing="1" originx="0" originy="0" spacingx="0" spacingy="0" snapvisiblegridlinesonly="true" visible="true" enabled="true" dotted="false"></inkscape:grid>
</sodipodi:namedview>
<metadata id="metadata5">
<rdf:rdf>
<cc:work rdf:about="">
<dc:format>image/svg+xml</dc:format>
<dc:type rdf:resource="http://purl.org/dc/dcmitype/StillImage"></dc:type>
<dc:title></dc:title>
</cc:work>
</rdf:rdf>
</metadata>
<g inkscape:label="Guides" inkscape:groupmode="layer" id="layer1" transform="translate(0,-290.64999)">
<path style="fill: rgb(255, 255, 255); fill-opacity: 1; stroke: none; stroke-width: 1; stroke-linecap: round; stroke-linejoin: round; stroke-miterlimit: 4; stroke-dasharray: none; stroke-opacity: 1;" d="M 10.199219 4.1425781 C 9.7243053 4.1425781 9.2904578 4.2967169 8.9414062 4.59375 C 8.5923555 4.8904429 8.3203125 5.3698883 8.3203125 5.9257812 C 8.3203125 5.9486178 8.327283 5.9695472 8.328125 5.9921875 L 3.7382812 5.9921875 C 3.3515464 5.9921875 3.0933497 6.2527821 3.0546875 6.6386719 L 3.0546875 8.8964844 L 9.9550781 11.507812 C 10.257648 10.927844 10.850025 10.526522 11.537109 10.513672 C 11.548864 10.509892 11.558445 10.505859 11.570312 10.505859 L 12.382812 10.505859 C 12.396193 10.505859 12.408647 10.513672 12.421875 10.513672 C 13.108059 10.52879 13.699203 10.930994 14 11.511719 L 20.962891 8.7558594 L 20.962891 6.6757812 C 20.945505 6.2695576 20.667686 5.9921875 20.263672 5.9921875 L 15.677734 5.9921875 C 15.678576 5.9695482 15.685547 5.9486178 15.685547 5.9257812 C 15.685547 5.3698883 15.413477 4.8906697 15.064453 4.59375 C 14.715429 4.2970571 14.281599 4.1425781 13.806641 4.1425781 L 10.199219 4.1425781 z M 10.199219 5.4941406 L 13.806641 5.4941406 C 14.062023 5.4941406 14.272096 5.5928873 14.392578 5.6953125 C 14.513058 5.7977377 14.529297 5.8671986 14.529297 5.9257812 C 14.529297 5.9507616 14.519067 5.9701482 14.515625 5.9921875 C 14.861875 5.9923583 15.062443 5.9918363 15.53125 5.9921875 C 15.421225 6.1835876 15.26206 6.3509737 15.072266 6.4746094 C 14.720085 6.7036487 14.281553 6.8144531 13.806641 6.8144531 L 10.199219 6.8144531 C 9.7242596 6.8144531 9.2857474 6.7040267 8.9335938 6.4746094 C 8.7438144 6.3510349 8.584639 6.183605 8.4746094 5.9921875 C 9.0597484 5.9921875 9.0611386 5.9922668 9.4902344 5.9921875 C 9.4867938 5.9701446 9.4765625 5.9506769 9.4765625 5.9257812 C 9.4765625 5.8671986 9.4928542 5.7977377 9.6132812 5.6953125 C 9.7337349 5.5928873 9.9437908 5.4941406 10.199219 5.4941406 z M 20.96875 9.96875 L 14.214844 12.644531 L 14.214844 13.226562 C 14.214844 14.2425 13.3868 15.080078 12.380859 15.080078 L 11.570312 15.080078 C 10.564371 15.080078 9.7382814 14.242463 9.7382812 13.226562 L 9.7382812 12.640625 L 3.0332031 10.097656 L 3.0332031 18.878906 C 3.0332031 19.226623 3.3453599 19.597656 3.7363281 19.597656 L 20.265625 19.597656 C 20.656594 19.597656 20.96875 19.226396 20.96875 18.878906 L 20.96875 9.96875 z M 11.570312 11.638672 L 11.570312 11.640625 C 11.506276 11.640625 11.451436 11.660536 11.394531 11.671875 C 11.362972 11.679434 11.327987 11.674335 11.298828 11.689453 C 11.057664 11.783563 10.900635 12.005764 10.876953 12.298828 A 0.56149327 0.56701807 0 0 1 10.857422 12.40625 L 10.857422 13.230469 C 10.857422 13.652377 11.152607 13.949219 11.570312 13.949219 L 12.380859 13.949219 C 12.798561 13.949219 13.09375 13.652415 13.09375 13.230469 L 13.09375 12.408203 A 0.56149327 0.56701807 0 0 1 13.076172 12.306641 C 13.055158 12.008436 12.900378 11.783337 12.65625 11.689453 C 12.574877 11.659217 12.481973 11.638672 12.382812 11.638672 L 11.570312 11.638672 z " transform="matrix(0.26458334,0,0,0.26458334,0,290.64999)" id="path1278"></path>
</g>
</svg>